<?xml version="1.0" standalone="no"?><!DOCTYPE svg PUBLIC "-//W3C//DTD SVG 1.1//EN" "http://www.w3.org/Graphics/SVG/1.1/DTD/svg11.dtd"><svg t="1602214369172" class="icon" viewBox="0 0 1024 1024" version="1.1" xmlns="http://www.w3.org/2000/svg" p-id="7865" xmlns:xlink="http://www.w3.org/1999/xlink" width="200" height="200"><defs><style type="text/css"></style></defs><path d="M924 708h-40.54a142.81 142.81 0 0 0-15.41-37.14l28.69-28.68a36 36 0 0 0 0-50.92 36 36 0 0 0-50.92 0L817.14 620A142.81 142.81 0 0 0 780 604.54V564a36 36 0 0 0-36-36 36 36 0 0 0-36 36v40.54A142.81 142.81 0 0 0 670.86 620l-28.68-28.69a36 36 0 0 0-50.92 0 36 36 0 0 0 0 50.92L620 670.86A142.81 142.81 0 0 0 604.54 708H564a36 36 0 0 0-36 36 36 36 0 0 0 36 36h40.54A142.81 142.81 0 0 0 620 817.14l-28.69 28.68a36 36 0 0 0 0 50.92 36 36 0 0 0 50.91 0l28.68-28.69a142.81 142.81 0 0 0 37.1 15.41V924a36 36 0 0 0 36 36 36 36 0 0 0 36-36v-40.54a142.81 142.81 0 0 0 37.14-15.41l28.68 28.69a36 36 0 0 0 50.92 0 36 36 0 0 0 0-50.92l-28.69-28.68A142.81 142.81 0 0 0 883.46 780H924a36 36 0 0 0 36-36 36 36 0 0 0-36-36zM744 816a72 72 0 1 1 72-72 72 72 0 0 1-72 72z" p-id="7866"></path><path d="M860 64H164c-55 0-100 45-100 100v516c0 55 45 100 100 100h220v108H244a36 36 0 0 0-36 36 36 36 0 0 0 36 36h176a36 36 0 0 0 36-36V744a36 36 0 0 0-36-36H186a50.15 50.15 0 0 1-50-50v-59h284a36 36 0 0 0 36-36 36 36 0 0 0-36-36H136V186a50.15 50.15 0 0 1 50-50h652a50.15 50.15 0 0 1 50 50v234a36 36 0 0 0 36 36 36 36 0 0 0 36-36V164c0-55-45-100-100-100z" p-id="7867"></path></svg>