<svg class="icon" viewBox="0 0 1024 1024" xmlns="http://www.w3.org/2000/svg" width="200" height="200"><defs><style/></defs><path d="M142.165 268.63a17.067 17.067 0 1 0 34.134 0 17.067 17.067 0 1 0-34.134 0zM256 268.63a17.067 17.067 0 1 0 34.133 0 17.067 17.067 0 1 0-34.133 0zM199.168 268.63a17.067 17.067 0 1 0 34.133 0 17.067 17.067 0 1 0-34.133 0zM341.333 516.267l51.2-51.2a17.067 17.067 0 1 0-24.234-24.235l-63.488 63.659a17.067 17.067 0 0 0 0 24.064l63.488 63.658a17.067 17.067 0 0 0 24.234 0 17.067 17.067 0 0 0 0-24.064zm244.395 75.605a17.067 17.067 0 0 0 24.064 0l63.659-62.805a17.067 17.067 0 0 0 0-24.064l-63.659-63.659a17.067 17.067 0 0 0-24.064 24.235l51.2 51.2-51.2 51.2a17.067 17.067 0 0 0 0 23.893zm-56.661-145.579a17.067 17.067 0 0 0-23.382 6.315L442.71 563.2a17.067 17.067 0 1 0 29.526 17.067l63.658-110.08a17.067 17.067 0 0 0-6.826-23.894z"/><path d="M953.344 682.667a4.95 4.95 0 0 1-4.608-3.243 178.005 178.005 0 0 0-28.501-49.323 4.95 4.95 0 0 1 0-5.632 39.253 39.253 0 0 0-14.336-53.589l-12.8-7.68V251.563a51.2 51.2 0 0 0-51.2-51.2H136.533a51.2 51.2 0 0 0-51.2 51.2v432.469a39.936 39.936 0 0 0 39.766 39.765H358.4l-17.067 63.147h-22.698a73.899 73.899 0 0 0-71.851 56.832H204.8a17.067 17.067 0 0 0 0 34.133h434.688a36.181 36.181 0 0 0 1.195 12.118 38.4 38.4 0 0 0 18.261 23.893l36.01 20.821a39.253 39.253 0 0 0 53.59-14.506 5.29 5.29 0 0 1 5.29-2.39 166.23 166.23 0 0 0 56.662 0 5.12 5.12 0 0 1 5.29 2.56 39.253 39.253 0 0 0 34.134 19.456 38.741 38.741 0 0 0 19.627-5.12l36.01-20.821a39.083 39.083 0 0 0 18.262-23.893 38.57 38.57 0 0 0-3.926-29.696 5.12 5.12 0 0 1 0-5.803 179.541 179.541 0 0 0 28.502-49.152 4.779 4.779 0 0 1 4.608-3.243 39.424 39.424 0 0 0 39.253-39.253v-41.643a39.253 39.253 0 0 0-38.912-38.57zM119.467 251.563a17.067 17.067 0 0 1 17.066-17.067H841.9a17.067 17.067 0 0 1 17.066 17.067v51.2H119.467zm5.632 438.101a5.632 5.632 0 0 1-5.632-5.632V336.896h739.498v209.237a39.083 39.083 0 0 0-43.178 17.067 4.95 4.95 0 0 1-5.12 2.219 175.275 175.275 0 0 0-56.662 0 4.779 4.779 0 0 1-5.12-2.219 39.083 39.083 0 0 0-53.589-14.336l-36.01 20.821a38.23 38.23 0 0 0-18.262 23.723 39.595 39.595 0 0 0 3.755 29.867 4.608 4.608 0 0 1 0 5.632 178.005 178.005 0 0 0-28.502 49.322 4.95 4.95 0 0 1-4.608 3.243 39.083 39.083 0 0 0-23.21 7.68zm455.168 97.28h-204.8l17.066-63.147h179.2v39.083a39.595 39.595 0 0 0 8.534 24.064zm-261.462 34.133h303.787a187.733 187.733 0 0 0 13.312 22.699h-353.11a39.765 39.765 0 0 1 35.84-22.699zm639.659-58.197a5.12 5.12 0 0 1-5.12 5.12 39.424 39.424 0 0 0-36.693 25.259 144.384 144.384 0 0 1-22.87 39.765 39.424 39.424 0 0 0-3.584 44.373 4.437 4.437 0 0 1 0 3.755 4.95 4.95 0 0 1-2.389 3.243l-35.499 20.138a5.12 5.12 0 0 1-6.997-2.048 39.424 39.424 0 0 0-40.448-18.944 135.168 135.168 0 0 1-45.397 0 39.424 39.424 0 0 0-40.448 19.115 5.29 5.29 0 0 1-6.998 1.877l-36.01-20.821a4.95 4.95 0 0 1-2.39-3.243 4.437 4.437 0 0 1 0-3.754 39.765 39.765 0 0 0-3.584-44.374 142.507 142.507 0 0 1-23.04-39.765A38.912 38.912 0 0 0 610.987 768a5.12 5.12 0 0 1-5.12-5.12v-41.643a4.95 4.95 0 0 1 5.12-5.12 39.253 39.253 0 0 0 36.522-25.258 140.117 140.117 0 0 1 23.04-39.766 39.765 39.765 0 0 0 3.584-44.373 4.779 4.779 0 0 1 0-3.925 4.437 4.437 0 0 1 2.39-3.072l36.01-20.822a4.779 4.779 0 0 1 2.56 0 5.12 5.12 0 0 1 4.267 2.39 39.595 39.595 0 0 0 40.448 19.114 135.168 135.168 0 0 1 45.397 0 39.765 39.765 0 0 0 40.107-20.138 4.95 4.95 0 0 1 6.827-1.707l36.01 20.821a4.437 4.437 0 0 1 2.39 3.072 4.779 4.779 0 0 1 0 3.926 39.253 39.253 0 0 0 3.584 44.202 145.237 145.237 0 0 1 22.869 39.936 39.595 39.595 0 0 0 36.352 26.283 4.95 4.95 0 0 1 5.12 5.12z"/><path d="M782.165 664.576a77.483 77.483 0 1 0 77.483 77.483 77.483 77.483 0 0 0-77.483-77.483zm0 120.832a43.35 43.35 0 1 1 43.35-43.35 43.35 43.35 0 0 1-43.35 43.009z"/></svg>