<svg class="icon" viewBox="0 0 1024 1024" xmlns="http://www.w3.org/2000/svg" width="200" height="200"><defs><style/></defs><path d="M953.6 332.8c-12.8-6.4-19.2-12.8-32-12.8H684.8l32-211.2c0-12.8 0-25.6-6.4-32-6.4-6.4-19.2-12.8-32-12.8H544c-12.8 0-25.6 6.4-32 19.2L396.8 320H384c0-32-32-64-64-64H128c-32 0-64 32-64 64v576c0 32 32 64 64 64h710.4c19.2 0 38.4-12.8 38.4-32L960 364.8c0-12.8 0-19.2-6.4-32zM128 896V320h192v576H128zm691.2 0H384V384h51.2l19.2-38.4L563.2 128h89.6l-32 179.2L608 384h288l-76.8 512z"/></svg>